M48
; DRILL file {KiCad 8.0.3} date 2024-07-16T23:12:18+0100
; FORMAT={-:-/ absolute / inch / decimal}
; #@! TF.CreationDate,2024-07-16T23:12:18+01:00
; #@! TF.GenerationSoftware,Kicad,Pcbnew,8.0.3
; #@! TF.FileFunction,Plated,1,4,PTH
FMAT,2
INCH
; #@! TA.AperFunction,Plated,PTH,ComponentDrill
T1C0.0079
; #@! TA.AperFunction,Plated,PTH,ViaDrill
T2C0.0118
; #@! TA.AperFunction,Plated,PTH,ComponentDrill
T3C0.0472
; #@! TA.AperFunction,Plated,PTH,ComponentDrill
T4C0.0492
; #@! TA.AperFunction,Plated,PTH,ComponentDrill
T5C0.0591
%
G90
G05
T1
X4.9534Y-3.7776
X4.9534Y-3.8346
X4.9534Y-3.8917
X5.0105Y-3.7776
X5.0105Y-3.8346
X5.0105Y-3.8917
X5.0676Y-3.7776
X5.0676Y-3.8346
X5.0676Y-3.8917
T2
X4.3732Y-2.9697
X4.652Y-3.9264
X4.6673Y-3.7362
X4.7028Y-2.5352
X4.7028Y-2.5608
X4.7028Y-2.6857
X4.7028Y-2.7112
X4.7126Y-3.0961
X4.7382Y-2.3646
X4.776Y-4.1583
X4.787Y-4.1827
X4.7957Y-3.687
X4.874Y-3.7264
X4.874Y-3.7571
X4.874Y-3.8646
X4.8744Y-3.7854
X4.8744Y-3.9044
X4.8756Y-3.9421
X4.8811Y-3.615
X4.922Y-3.5988
X4.952Y-3.7228
X4.9772Y-4.211
X4.989Y-3.524
X5.024Y-4.0476
X5.0575Y-3.9571
X5.0705Y-4.1453
X5.0831Y-3.9571
X5.0984Y-3.5173
X5.1031Y-3.7362
X5.1205Y-3.9571
X5.1461Y-3.9571
X5.1492Y-3.7264
X5.1582Y-3.624
X5.176Y-4.048
X5.2079Y-4.1717
X5.2228Y-3.9626
X5.2256Y-3.7067
X5.2346Y-3.4555
X5.2555Y-4.0394
X5.2624Y-3.4555
X5.2902Y-3.4555
X5.3161Y-3.0177
X5.3161Y-3.0433
X5.3161Y-3.0685
X5.3179Y-3.4555
X5.3433Y-3.0177
X5.3433Y-3.0433
X5.3433Y-3.0685
X5.3457Y-3.4555
X5.3524Y-3.8461
X5.3528Y-3.7669
X5.3685Y-3.0177
X5.3685Y-3.0433
X5.3685Y-3.0685
T3
X5.3125Y-3.5415
T4
X4.1581Y-2.449
X4.1581Y-2.549
X4.1581Y-2.649
X4.1581Y-2.749
X4.1581Y-2.849
X4.1581Y-2.949
X4.1581Y-3.049
X4.1581Y-3.149
X4.1581Y-3.249
X4.1581Y-3.349
X4.1581Y-3.449
X4.1581Y-3.549
X4.1581Y-3.649
X4.1581Y-3.749
X4.1581Y-3.849
X4.1581Y-3.949
X4.1581Y-4.049
X4.1581Y-4.149
X4.1581Y-4.249
X4.1581Y-4.349
X4.2581Y-2.449
X4.2581Y-2.549
X4.2581Y-2.649
X4.2581Y-2.749
X4.2581Y-2.849
X4.2581Y-2.949
X4.2581Y-3.049
X4.2581Y-3.149
X4.2581Y-3.249
X4.2581Y-3.349
X4.2581Y-3.449
X4.2581Y-3.549
X4.2581Y-3.649
X4.2581Y-3.749
X4.2581Y-3.849
X4.2581Y-3.949
X4.2581Y-4.049
X4.2581Y-4.149
X4.2581Y-4.249
X4.2581Y-4.349
X4.4803Y-2.448
X4.4803Y-2.548
X4.4803Y-2.648
X4.4803Y-2.748
X4.4803Y-2.848
X4.4803Y-2.948
X4.4803Y-3.048
X4.4803Y-3.148
X4.4803Y-3.248
X4.4803Y-3.348
X4.4803Y-3.548
X4.4803Y-3.648
X4.4803Y-3.748
X4.4803Y-3.848
X4.4803Y-3.948
X4.4803Y-4.048
X4.4803Y-4.148
X4.4803Y-4.248
X4.4803Y-4.348
X4.5803Y-2.448
X4.5803Y-2.548
X4.5803Y-2.648
X4.5803Y-2.748
X4.5803Y-2.848
X4.5803Y-2.948
X4.5803Y-3.048
X4.5803Y-3.148
X4.5803Y-3.248
X4.5803Y-3.348
X4.5803Y-3.448
X4.5803Y-3.548
X4.5803Y-3.648
X4.5803Y-3.748
X4.5803Y-3.848
X4.5803Y-3.948
X4.5803Y-4.048
X4.5803Y-4.148
X4.5803Y-4.248
X4.5803Y-4.348
T5
X5.065Y-2.3724
X5.065Y-2.874
M30
