%TF.GenerationSoftware,KiCad,Pcbnew,8.0.3*%
%TF.CreationDate,2024-07-19T14:19:01+01:00*%
%TF.ProjectId,xbox2sata,78626f78-3273-4617-9461-2e6b69636164,0.1*%
%TF.SameCoordinates,Original*%
%TF.FileFunction,Legend,Bot*%
%TF.FilePolarity,Positive*%
%FSLAX46Y46*%
G04 Gerber Fmt 4.6, Leading zero omitted, Abs format (unit mm)*
G04 Created by KiCad (PCBNEW 8.0.3) date 2024-07-19 14:19:01*
%MOMM*%
%LPD*%
G01*
G04 APERTURE LIST*
%ADD10C,0.125000*%
%ADD11C,0.120000*%
G04 APERTURE END LIST*
D10*
X110144809Y-77138571D02*
X109906714Y-76971905D01*
X110144809Y-76852857D02*
X109644809Y-76852857D01*
X109644809Y-76852857D02*
X109644809Y-77043333D01*
X109644809Y-77043333D02*
X109668619Y-77090952D01*
X109668619Y-77090952D02*
X109692428Y-77114762D01*
X109692428Y-77114762D02*
X109740047Y-77138571D01*
X109740047Y-77138571D02*
X109811476Y-77138571D01*
X109811476Y-77138571D02*
X109859095Y-77114762D01*
X109859095Y-77114762D02*
X109882904Y-77090952D01*
X109882904Y-77090952D02*
X109906714Y-77043333D01*
X109906714Y-77043333D02*
X109906714Y-76852857D01*
X110144809Y-77614762D02*
X110144809Y-77329048D01*
X110144809Y-77471905D02*
X109644809Y-77471905D01*
X109644809Y-77471905D02*
X109716238Y-77424286D01*
X109716238Y-77424286D02*
X109763857Y-77376667D01*
X109763857Y-77376667D02*
X109787666Y-77329048D01*
X109811476Y-78043333D02*
X110144809Y-78043333D01*
X109621000Y-77924285D02*
X109978142Y-77805238D01*
X109978142Y-77805238D02*
X109978142Y-78114761D01*
D11*
%TO.C,R14*%
X110710000Y-77627621D02*
X110710000Y-77292379D01*
X111470000Y-77627621D02*
X111470000Y-77292379D01*
%TD*%
M02*
