%TF.GenerationSoftware,KiCad,Pcbnew,8.0.3*%
%TF.CreationDate,2024-07-19T14:19:01+01:00*%
%TF.ProjectId,xbox2sata,78626f78-3273-4617-9461-2e6b69636164,0.1*%
%TF.SameCoordinates,Original*%
%TF.FileFunction,Soldermask,Bot*%
%TF.FilePolarity,Negative*%
%FSLAX46Y46*%
G04 Gerber Fmt 4.6, Leading zero omitted, Abs format (unit mm)*
G04 Created by KiCad (PCBNEW 8.0.3) date 2024-07-19 14:19:01*
%MOMM*%
%LPD*%
G01*
G04 APERTURE LIST*
G04 Aperture macros list*
%AMRoundRect*
0 Rectangle with rounded corners*
0 $1 Rounding radius*
0 $2 $3 $4 $5 $6 $7 $8 $9 X,Y pos of 4 corners*
0 Add a 4 corners polygon primitive as box body*
4,1,4,$2,$3,$4,$5,$6,$7,$8,$9,$2,$3,0*
0 Add four circle primitives for the rounded corners*
1,1,$1+$1,$2,$3*
1,1,$1+$1,$4,$5*
1,1,$1+$1,$6,$7*
1,1,$1+$1,$8,$9*
0 Add four rect primitives between the rounded corners*
20,1,$1+$1,$2,$3,$4,$5,0*
20,1,$1+$1,$4,$5,$6,$7,0*
20,1,$1+$1,$6,$7,$8,$9,0*
20,1,$1+$1,$8,$9,$2,$3,0*%
G04 Aperture macros list end*
%ADD10RoundRect,0.102000X0.937500X-0.937500X0.937500X0.937500X-0.937500X0.937500X-0.937500X-0.937500X0*%
%ADD11C,2.079000*%
%ADD12R,2.500000X2.500000*%
%ADD13R,3.000000X2.200000*%
%ADD14R,1.875000X1.875000*%
%ADD15C,1.875000*%
%ADD16RoundRect,0.160000X-0.160000X0.197500X-0.160000X-0.197500X0.160000X-0.197500X0.160000X0.197500X0*%
G04 APERTURE END LIST*
D10*
%TO.C,J2*%
X116340000Y-110440000D03*
D11*
X113800000Y-110440000D03*
X116340000Y-107900000D03*
X113800000Y-107900000D03*
X116340000Y-105360000D03*
X113800000Y-105360000D03*
X116340000Y-102820000D03*
X113800000Y-102820000D03*
X116340000Y-100280000D03*
X113800000Y-100280000D03*
X116340000Y-97740000D03*
X113800000Y-97740000D03*
X116340000Y-95200000D03*
X113800000Y-95200000D03*
X116340000Y-92660000D03*
X113800000Y-92660000D03*
X116340000Y-90120000D03*
X113800000Y-90120000D03*
X116340000Y-87580000D03*
X116340000Y-85040000D03*
X113800000Y-85040000D03*
X116340000Y-82500000D03*
X113800000Y-82500000D03*
X116340000Y-79960000D03*
X113800000Y-79960000D03*
X116340000Y-77420000D03*
X113800000Y-77420000D03*
X116340000Y-74880000D03*
X113800000Y-74880000D03*
X116340000Y-72340000D03*
X113800000Y-72340000D03*
X116340000Y-69800000D03*
X113800000Y-69800000D03*
X116340000Y-67260000D03*
X113800000Y-67260000D03*
X116340000Y-64720000D03*
X113800000Y-64720000D03*
X116340000Y-62180000D03*
X113800000Y-62180000D03*
%TD*%
D12*
%TO.C,TP2*%
X135050000Y-90600000D03*
%TD*%
D13*
%TO.C,J3*%
X128650000Y-73000000D03*
X128650000Y-60260000D03*
%TD*%
D14*
%TO.C,J1*%
X108155000Y-110465000D03*
D15*
X105615000Y-110465000D03*
X108155000Y-107925000D03*
X105615000Y-107925000D03*
X108155000Y-105385000D03*
X105615000Y-105385000D03*
X108155000Y-102845000D03*
X105615000Y-102845000D03*
X108155000Y-100305000D03*
X105615000Y-100305000D03*
X108155000Y-97765000D03*
X105615000Y-97765000D03*
X108155000Y-95225000D03*
X105615000Y-95225000D03*
X108155000Y-92685000D03*
X105615000Y-92685000D03*
X108155000Y-90145000D03*
X105615000Y-90145000D03*
X108155000Y-87605000D03*
X105615000Y-87605000D03*
X108155000Y-85065000D03*
X105615000Y-85065000D03*
X108155000Y-82525000D03*
X105615000Y-82525000D03*
X108155000Y-79985000D03*
X105615000Y-79985000D03*
X108155000Y-77445000D03*
X105615000Y-77445000D03*
X108155000Y-74905000D03*
X105615000Y-74905000D03*
X108155000Y-72365000D03*
X105615000Y-72365000D03*
X108155000Y-69825000D03*
X105615000Y-69825000D03*
X108155000Y-67285000D03*
X105615000Y-67285000D03*
X108155000Y-64745000D03*
X105615000Y-64745000D03*
X108155000Y-62205000D03*
X105615000Y-62205000D03*
%TD*%
D16*
%TO.C,R14*%
X111090000Y-76862500D03*
X111090000Y-78057500D03*
%TD*%
M02*
